<mxfile host="app.diagrams.net" agent="Mozilla/5.0 (Macintosh; Intel Mac OS X 10_15_7) AppleWebKit/537.36 (KHTML, like Gecko) Chrome/133.0.0.0 Safari/537.36" version="26.1.0">
  <diagram name="Page-1" id="iaF0n5n6blZ96VzvmCNz">
    <mxGraphModel dx="1152" dy="1752" grid="1" gridSize="10" guides="1" tooltips="1" connect="1" arrows="1" fold="1" page="1" pageScale="1" pageWidth="827" pageHeight="1169" math="0" shadow="0">
      <root>
        <mxCell id="0" />
        <mxCell id="1" parent="0" />
        <mxCell id="0eJiwybFb9geiyAsJZwF-51" value="" style="rounded=0;whiteSpace=wrap;html=1;fillColor=none;dashed=1;sketch=1;curveFitting=1;jiggle=2;" parent="1" vertex="1">
          <mxGeometry x="429.79999999999995" y="-750" width="346" height="120" as="geometry" />
        </mxCell>
        <mxCell id="0eJiwybFb9geiyAsJZwF-19" value="AWS Cloud" style="points=[[0,0],[0.25,0],[0.5,0],[0.75,0],[1,0],[1,0.25],[1,0.5],[1,0.75],[1,1],[0.75,1],[0.5,1],[0.25,1],[0,1],[0,0.75],[0,0.5],[0,0.25]];outlineConnect=0;gradientColor=none;html=1;whiteSpace=wrap;fontSize=12;fontStyle=0;container=1;pointerEvents=0;collapsible=0;recursiveResize=0;shape=mxgraph.aws4.group;grIcon=mxgraph.aws4.group_aws_cloud_alt;strokeColor=#232F3E;fillColor=none;verticalAlign=top;align=left;spacingLeft=30;fontColor=#232F3E;dashed=0;" parent="1" vertex="1">
          <mxGeometry x="20" y="-795" width="810" height="625" as="geometry" />
        </mxCell>
        <mxCell id="0eJiwybFb9geiyAsJZwF-20" value="" style="endArrow=classic;html=1;rounded=0;fillColor=#008a00;strokeColor=#005700;strokeWidth=2;" parent="0eJiwybFb9geiyAsJZwF-19" edge="1">
          <mxGeometry width="50" height="50" relative="1" as="geometry">
            <mxPoint x="665" y="204.99999999999997" as="sourcePoint" />
            <mxPoint x="745" y="204.99999999999997" as="targetPoint" />
          </mxGeometry>
        </mxCell>
        <mxCell id="0eJiwybFb9geiyAsJZwF-21" value="" style="endArrow=classic;html=1;rounded=0;fillColor=#0050ef;strokeColor=#001DBC;strokeWidth=2;" parent="0eJiwybFb9geiyAsJZwF-19" edge="1">
          <mxGeometry width="50" height="50" relative="1" as="geometry">
            <mxPoint x="661" y="260" as="sourcePoint" />
            <mxPoint x="741" y="260" as="targetPoint" />
          </mxGeometry>
        </mxCell>
        <mxCell id="0eJiwybFb9geiyAsJZwF-23" value="知识库构造" style="text;html=1;align=center;verticalAlign=middle;resizable=0;points=[];autosize=1;strokeWidth=4;" parent="0eJiwybFb9geiyAsJZwF-19" vertex="1">
          <mxGeometry x="665" y="205.91" width="80" height="30" as="geometry" />
        </mxCell>
        <mxCell id="0eJiwybFb9geiyAsJZwF-24" value="图片内容审核" style="text;html=1;align=center;verticalAlign=middle;resizable=0;points=[];autosize=1;strokeColor=none;fillColor=none;strokeWidth=2;" parent="0eJiwybFb9geiyAsJZwF-19" vertex="1">
          <mxGeometry x="660" y="270" width="100" height="30" as="geometry" />
        </mxCell>
        <mxCell id="0eJiwybFb9geiyAsJZwF-93" value="" style="shape=image;verticalLabelPosition=bottom;labelBackgroundColor=default;verticalAlign=top;aspect=fixed;imageAspect=0;image=data:image/png,iVBORw0KGgoAAAANSUhEUgAAAvYAAACICAYAAACMVq+4AAAACXBIWXMAAAsTAAALEwEAmpwYAAAgAElEQVR4Xu2dB5hdxZHvezSa0UgaaZTI2SSRTM5gLMDkDCYYHGG9xqxt8NtdP+/3vn149/Nbe9drsWt7cQLb5GByBpOzyFESAiOJJECgyZo8r37nTs/tOXPiveeGman6vouYe/t09/mf0NVV/6oyRkURUAQUAUVAEVAEFAFFQBFQBBQBRUARUAQUAUVAEVAEFAFFQBFQBBQBRUARUAQUAUVAEVAEFAFFQBFQBDJAoCaDPkrSxaBISTrWThUBRUARUAQUAUVAEVAEFIEqQKBGJMtpTMqyM+1LEVAEFAFFQBFQBBQBRUARUAQqg8DkygybfNQfLFydvLG2VAQUAQ+Bn14wz/tXnx+9IRSB9Ajo85MeMz1CEVAE0iFg3zPpjopvrRb7eIy0hSKgCCgCioAioAgoAoqAIlD1CKhiX/WXyBjYV+vMrjXzt6g30xoypWKNgbPXKSoCisDk2hozd1atmaRvbL0ZFAFFQBFQBCIQqHoqTsTcJ8RPU6fUmH/6mzmmvi6n0D/87Fpz56MdJT13RtpqszrT1j5gWuSztntkHHPd5Brz7dOaTIPMrb/fmJ/9aU1m85nTVGvWtPSbQiOn15tba848eqY3n+Xv9Zob72/PbG7aUfkQ2HGrerPFRnVmnTm13v139Z1tZRn8lMMaTV+fMTxna1rl5o6QIw+YbraR56S1Y8A89vxas2xlb0Tr4n468ZDpZo8dGkxP76BZ8naPufKO8uDBrLfcpM586agZ5vEXu8xTL601nV2FPp2jMTju89O9a4zc+lCH+fjTaMxH96DffHabKWZ1c795/yO5catMuLY7bFnvzYrn470PR86R53yeGK2QxX/tMR9+ku31P+mQRrPRejk154rbW+WZHkiM0ClfaDSbblBnBiSPxxW3t5nVa7KdW+KJSMN9d24wn9t9qnfIvU92mhcWd6c5fMy33Vres2cNretLl/eYq5z1YNvN683mG0029wkuA8kv75jHJOoEVLGPQqcKfkOpeWVZj9l9+ynebPbeqcHc/3Sn6e7JbnH1n+ZWm9aZc05q8r5Gkbjw4k88Bd5Kndw1G66bu3Xc7/39pP17rx0bzEmHNnov+KvvavPGTiuN0yYZlHtE8yqlRa962m+xcZ05YNfcQsZdcPdjHakW5ULOhE3lHts3eB4ynrPf3dBi/vpuuLKOB239ebVmQxkMxb5Usr/ggFKPsMGPmlMp5rDr/CmG5+rw/aaZLeW6gEtWguK0yfq5d8nUKZ1ZdTth+uEePPPoGd75ojhfdUdrphuvYoHcZtN6wwYYmfdal/nzvSMNLbvL87b9kOLf0jaQuWLPxmLjIcUer1camT2zdngtmT1zUtkU++MWTDcbrTPZvLOqzzwq7xWMa9MaJhneT0hDffLz4H2x87Y53SHNuWfVljX85aXdBRvq7DwmyUsZQyKC59IKm9rTj5xhasWTufmGdd4GrGOtaveq2Gd1B5ewn7881WlYXHHDc3PvJUrHo8+VTpHYUxRsKy8u6R6h1JfqNLf7TL05SSwkPLq86M87fZb5062t5lOx3qtMPAQef6HL7LfLVDNJbgjuiV3nN5gHFpVW8dtvl5xSD9oDA4Pmg4/DLaBThRK3nij1XlvZeayURbgUgrX8mM/lFCP6/1ishq++2eMp2mlkbfdAQc8xytCOW+cVg1ff7PY23/OcxTVuHo/Iuwovg0q2CEDLxKpspalx0giDDxvjtPeJf4afitdq0Std/q/17wgEzhDv1npDXqiIZiN++lA8VdYrucOWU8ysGZPECl1nni4Se/89knQ+WbZb8X6vaZZNWylk7qxJnlKPfEaMDt89c5b54y2tke/uUsyj2vpUxb4CVwRFJU3W0mZ5uT63uMvsOWS144X9pLjFUT7SSJLmLA47iHvUypMvleeljhVyiVjqUfARLKHf+dIsc+lNLZ7lQmXsIoBycdSBeeU06Zlwf08asrLhirYu+6THYy26/eEO09cf/5xMESuYu6F9RZRnPwXNHXczsTRbu9mq1X0l8aBhoTvrmJkjePXE2vyfb85JCsFwu99cH+19COtw/hZ1BjogAo4vivUNSoC1HoYd536PcWAj8fBhmedKQCMoxBuXZKyJ1OaEgxvNjOn5Dd7ND7Sbfkd/WrBX8Yo97+Wxotj/3RmzPDw6xWL7X1c2V+xWwKvlXpckE7EUEjbMKPVIm1D82MirhCPw4KK1pr1j0JwoxgYUfLD721OazO9vbDHv+mhf4b2Mv19Usa/ANT1CXJOf3zNHMyhkeG7eH393bupD/+faFsPuOUqOFAXMuixp+36E1TKqn7S/QS3CQo/b9qA9cthgbYASxEOqyn1aRKunPV4mSyUrdFYzZcNZSB8PipW/pT1esYeC47q4UWZQXhunBbu94QZbgZO/6Qbxr1KoYe/KJjV+NjnKzVeOm1HxYPldt8t7715js1MAv75XNgTwYA/ff5oHWUfngOd1UCkcAegVLsXiJdlwvfVO9Lu98NHGxpEoxXjS2KQnFagq//vs2eIJH+0BcwPVv3FCU+Bzu7ZrwPzrbz5NOlxsuy2FBmvlbYkRK1awlF9+W6upT4DJPsIE2EzoLMizQpt6y0dD3FloL1C/kNfe6pFnOBnPP8uYnCA8npG54ln6yrEzPUYD98DfnNxkLhG9oVSe1KB5VNN38atRNc1W51JSBOCoQfmxsqn8/bdfzHHt3YGt64vvaoWNENQmbKJvrOgx7LKDBMWHwOBVn/SJiznHm+NBRbmH18sOnPGiirQR2GsFr8hk5++gMfmury+JqhV2tH4/1hHgPtl/17wC+4kEIr4tixrUMOI+4gSlHupYEmGxeWNF9ILNxv3LskhtMC//euYYLHhJpF7W5p0c+gwLayGUNiz1WOytsNgjv7+x1fMiQDdgngi0pStDApwJOlywZ06pH+5M/6dgBOCMnyjWeitcW6z1fiGYsG4o6YL/t6R/w3sfC4IxCoUOScOxnizryfSpo5V6/zmHZaOqhSvok3//w5phj/yGwpX/1qm5NRQj2a+vC45PsRb7rYR6ZyWrWJqkm+i5Ysiwiv3KD/rM86+PVNzrBGOr2PO8+3/341DOv9nUYgA8RxR6DDToDcQmrZRYvYkoqthX+Krjko5y+Wc5vf4ISgLBQV8aCsKyY/LKgrcWJ0na2D5Q3sMUe9uGFwZWULiKvDd5SKFJvPthuzn31FnDwXZx8yKI9sffifds/EiCg0ttVYib60T6HeW2lIKyabNIJRmHxcoNyOL+LNVWb1KAIuDOEU49wZB+ZYPDbnuoPfZdAQXga8fnlG365d3CprgQjivceuu943ib9YeNDwItyMoqyWaiGW3cK1ma/4eqyP1hDRisH3+6tS3w/fXUy+WhUZbmTNP16lJfOtYmf3pRqFFig8T1wnFvB63TQUksXJoZnsbhZ2R1fyRlD4PZVhJsbAWqFR+/hH3Pc8mmopqFgOTpU0dvhuLm7L5roAvbgGj3OHSL+57oNMdKpi2uAfEJbruP5BpOFAqgKvZxd1SJf39aXr63P1La9JVxp8BLEdcVD0y1yMtvdIu13ZhTD59hlkrg3a2i1KiMfQRaJcNDnMW62LP0MjXF70eHh7HZd/iCxZF4FuRDWYhJreaXObI42RSNbAjfWRVtgXePbxcaSpjAXYcKF6T7k6nqPOEQ/+HmVm+OQcJG9utCGWCTjqB0XCqbqELTIO62Xd5799zrXaOyTLkBtJVMBRiExXj8bu/PNniKnr0/iJm67p52Q4xHuYWN5wHi5cIz9LzETJQ6sP2Yg6YbrN88j6yZXb6scDOm55VF1jGbaYdsMlagudjndpU823g66OdX1wTz8VkTee6QW2T9WRbjaQu6Bus6QbRx14mNdCnr1OBZj+L+u8aEwyQD1oFD6TXtebn6AYkNorLt4F0krscvh+wzdThW0P9b0r85B+LvogTDjp9JwD16z+OlTcAQNady/qaKfTnRrsKxLI/dtVjeJgGHBLKGCRZ0+2ARrPXzFHnse1PQXrDcN0veYSwqNq1mp3AaoygJteIutC9HrDFxblle7L3lXxfDoB3330ONcq0vpThhNoRJBa68Xbw5hgxU1i3+2AtrDR+/HC1ZataZk4sDeebVrqLrSrAIfVHy55O6zQr3O5tZLOVYaGkDbt8R5f5OSf35jFijrF0SKhGbEzjsriX3UtkEFMoxxQtnPXGM85zPLc883XeGBvn575Js/+baHrxXns7EPUpK4FeW5egSqLUbSIDyB5LLPrm9uvA5sgYcvHduPnvsMKXkiv0uElOAQvcZ8Wh596JPsZ/pBBFDZfvqcXmvlT1Ll75064MdUpdh9LNdOCLBR47waslmIkr2kwQBVli3XG+AG6yOMaFLslz5hbSYUcLzmtR4R8KDxgj2HGvstIa8x84/bhqPqf/YUv2dNt1pqeZRjn5TLIHlmI6OUU4ECDL6xolNXgYaK3Dc43Jyj7AqyCpCcZRihblQTOR12VAQCGbFzzO89KbWyKGgMnxTouIRXG8LL69u12TkyYzDH7l3/v5rs6vizFjkTpZYDissjGRwiZNtNsu7y7NI40gWKlepx6tBMZ0VQxSBX4vl6xsnzPRSF8IjPlkyQEBNu1mKr7FRPuWwGWYzJ3gXy+AVUsCqUGoMfOLjJZe2FYoKBXkJ3PcGbYNSYLaJhyKIrhCHsf6eR4B0p671lOxEFCh7XQIYrewuGdPYHPLOo85Jkvu4GIy5H+BZbyBWdBRGKA+lykKCld1amhkzyOuVNmNWMeee5ljLWecYqD1NQxlv3D44J6inpLe0grXbLdZ1iGyisKIj9z7RYYrNVhf0brDeDMbAeNblK0wJxjabHxuPzgDKk9uHe472/z/4qN8snhpuNAw6hu+my7tv06F6F1CiKD6ZVrIufpZ2/HK2V8W+nGhX2Vhkn7HFYZjaA7IgUHGz3EKQ3jckQJYHd2cJ3sX6QmEOlfGBAC7vn1yS22BtsE5toDUtyzMlH7TN5oRiGSQsUBQ2cTeppMmLSwmLNdAqtCx8y2OyTAWN7f+O9I/bymZhV6G+0B9FVlyvFIr1RVc0ewq9TQfLs/IdydmMuIxVaAq3kuIzhWfMP599d54q55hfGoK4xVjkNlk/r4hQmTZIsChzPmGSJu1vWB/j/Xs3AQD3BVU3XYMH788jD8gpfVA/qPRaasUezCmciGKPQMsolWLvBpS+sTxYoSPxgxWyyXzaknvut928bjiXPwGWNtZkxQe9Zn+hk0SJTTtJG3LLrzs7XF1658PeUVx9NjxuH4fuE2wCZ83FA2KFeZZaCf35ZWtGveu+sO80Y+dI4LU/hz5F+6hhgbCxoI0rUMT+7fx5I77z/4GXpBBPCVm1vnFizgvDppJc9SrhCITfqeHH6C/jBAGKAJEbnwAfHrZ7JPCkEgK3z1r7eL3Bp2ROd1Q49qASWIzHMaENrJF0ZEi/aM4PPVO6TRvWTFKxxVG+SDcbFvQNnYXfgzJeuBYpxjhs3/T5+de09Xs8YVf+fF+7WS7KBhQbNxe5bYNCx2JGPQCbDtZV6GmHEk28TjFKPc8iC3ycgJ2bHSusvZulKqyNfh+NAF4h6jigzKPU+6mIR+w/fVh55Z7kvYkHKEs6BDFP/sDDl+V+s1ZkxrtTxi0FDQgvrBWyqvmF58Baxhn/MkmbbJMhwLO2RbpuEg+XpYzhIY7jabvjgH+UYBTzB+G6FL+oY/ltm83y5/hEGShCcfMpx+9cAzYDQYaDqPHx3vDuCXpP2uPY7J572izvnejfgET1PV5+U8V+vFzJAs4DdxoLBVSAO8TKVymBynPxtc3mbLHaWwsHgYQohHcJn1hl/CAAzaTS1xQvVZRCjvIeZl1zrwQLDEWA0gpWeb9iz4bkqZBicIyDRZRUtEHZIOz4BDKS4WepWDVZ0IiT8QcZxs0Vy68tSBXV1rWiEpwLBcQKVuMNhe+N2HiFqL70t2gEsOCirEOR9HuU4J7v4yidZHTCKn3uadNHWIujR4j/FaUe5d4V6BxYlgna5r1NeuS4OinxI41sgQK39RD1jTkEecjmyf1mPW8EvFdLhjOXssfz/q48J1bYrHDtEM7rV9e0mOMkm8umUvjOpVilxWustGezdc7JM810CW7+rWTtCqIGhZ0LFEqCd8O8+qTEJjMa9+V6c6fJvTHJ3PLgxEq+oYp92N0zzr9HQbCcPhaC/XdLrqDUO7nheYgOSHGsC+trUuBijQTHIigGVrm3mQSwmsKnDHuAx/klGten5xWSKTLHth8g0tzFWeqxEp0hFJywvNT+Piv1N4oKtJtd5zcYsnn4M+WQ2g3PBPShncRaapVxLOQEBPNhs0AmD6yc73/cb1YJlzdK0WfDs0eCvP1YSC0lCHxuFEuoW0CO/NHHDSn2WcTfVOoaVMu43NOPPDfaywUN5hTh1VuBslVuKiUbSJQnZOdt6jNX7AmWtYXj8FjYJArutdlclGErSYs6Efdx3T1tErOSTSY4fwFFFFf7jHD9iF1znz23RgVrH14Y4iag5Pg3b+65Zvb/8hDXRLlX+N0/mO+LuN/9h7t/ny20GovBt8Sr8vsbWs0HKbI7HSK0JrIxBSXHoAaO6+UJahM1t/Hwmyr24+EqFnAO21AJcigYp4DDRxxyrFBnChFcxbgwrbDBoIDHt09rMjYY6mjpmwf+zZXB3MpCxtVjKo/A0UIpIQA0S4Grfs3d4Xxuxjp+QeOIbC5wRf1u9mahDV1/72gLD9k/thgKcEPJCMoUk+R8/MF/KOUbyUabzbb9kO85SFASnn2t21P0bNGpWx7q8BT5PYRWh/vfLrhkgUC5sAoG6/gaiXf4QKyaWNkJ2ntHlEG8KMhxgs2oxTpgEoxhn0/4rn6lZouN8stKHFeYDYpKegRymV/y+eypCHy5xDKwmUMelfsjLpDRjkrgteXKszngnvDLJ3LfBMkrYsW33i3oOGRUy/Kawm23Esav32zD/P3mT7YQNGf7Xdrnl/UKQxbn5w8s9Y+z545ThqlqxCL4N9SbO88Iij2JIwgQDRM3bSZcdzffvf+Yvwj3PU5J/rfvRXPhmQ+fMOGaJ/Fqhh1/n2QfI9sX7yg2Qd9EuZfUvNx/SYR3JpRBf2E2qIpuml5qOZDpbKKJKvYVuOIu95Fy6yp5BNhdXyKZb847PceNhLf47qo+Qw5nFJc4sdYd2hHkSO7vJPJbyUIQZ+1N0o+2SYZAsRUxg0ZJUjbdZlbgeLj+0Av8ij2ufFtl1R2HxdoKxwbluA+aV9h3LNDw5edIkF2UQg1nfqlY3lGiFg/Ra1gMLS2H+RIsyYcc9rtvz7MyRf5/5OaAMUibx4cAS4QMKvcOxdbYVHhQA+6WfM9QA4JkXyfo8EUng5Vt68YuxOXuDupfv4tGgOv6zVNmDl9fVhA2tDaOhaOD0rSG9YoyZBX7xcLnT8NJ9gqTSWVh0jpCGYOClVQ5C5uP+73rGQri19OWe5Ag7C03qTdJLfZJxva3OfXwxuGKzr+4qjk0WBj6EM+2FVLiusIaZa3VbMSoAbGNBPn6n1f/+PZvrtUG64T9SmDraO9OeOvK/ALd6E+3tJmvHJfbnNq029QUSFoTA53gKTlX7kEwJzuYq9TjTfIr/pU52/KPqop9+TGXoKb8oJVKBQcNxlWCKwBDqNsWSyQ5uBcIFYcCLCgas4RX5yplSeeb9BjNzpEU0ezbkbrsI1ncChGCrsOCYIP6WyIFbshBz0v/bonfsFzwoLbudyguNvMGaTHDlIy4ftzfsdS5ueDd37DAvvlOj5d5BGXeH7gI594q3ig2ZAJCoLZhoeKDAg+9xn42EqXLDWalTwLorSyWxRa+9i2S47u1Pfh6sHFwlS3m5wqWRVvoBqUlzmI/4mD9IxYB7hfS+brZVrhXski7Gjt4SAOUNBvQvbV4c7JS7EkPac+T+zqsVgLe3HJ7dKPiUKCmWiUdj9bb4t1zBR69XW9WvC+pLuU56Qt+3EIQL+xreP5xXhzieKx491VAgb4ko1NvJk54h1Jwj0rZGDtR7knr+8urm0fESUCb3G+X0UY96InHHNQoqX1bzVeEU+/Sb6iSfc1d7Zl6j+LOp5p+V8W+AlcDnq8Vv4uuXNNhwYX3V63C4uCmyestw4uvWrEY7/N6Tig0iyQbTCFCisg0ij1KMnSaa++Wl36KAV1vEdb8LOgGWBcJBtxkvTovPSeUlpVSxZZ/P5GNTpr5BZ0KG2Q+ti4EC+T6c0XRF4UJZZ93gMs/fVU2+7ybOD83S4fbN8W5XL7/KV9o9LjBlhbkXou33+1TL1jQhSnwO5TmMyStqFshtMCuMj3szZV5xR6KSFZZr3bfLq/M+QN3Cz0B7l2q0sJj5/53i1bF9UmqXivUv3Aty7c93O71x8bXzSpFzAM0E55pPCF4hV0ajt2QkLfeZu9x50FtAjbkQUL8zB0Ba3hQzQmOxzsXJQSb7ix0Kht/dO+THeaJFwt7L0eN4/5GYDjZvkicgdWdjetXpLjY7ySg1sZTnCiUIJICWCGtKkYJ3jVbSzahH54zZ4SREnrlbVLcLyprTtL5jdV2k3vOn//rapx8//UXmpo5G5pac6zpT1MfvhpPxjcnl4rT7SsCMQamX5EpPiIvSKgIYUIAoY0ZIBPHxdc1GywOSUVpOEmRGtvt4OBefG3LMBc5ydmgDOy+fd6SNUNoMAR2pxU2q1iSXMFiRXEay41O22ea9jwXbCD4PP3y6COZm39+biss9WTecQU60PfOmmVu/Eu7t4HYQhZbK0sDUhOOHlW/iUMAM9DnJfvS4ftNH7b0xh1Tzt/ffi9XGRz++RbCdyfvfjEpV5k73Gu8UlYK3fi7OJBpjdgyvAAo3FQ1RzEsRFDg+VhpmML/93tztl4xlFbiaVBA+ey0db25QZ4TG6fDsWyKEIJn/WlMUXJdyo6tnIrHENocsSzEx2QVHIr12yr1bFLgp5dDwAnKDHU6EPABRyrPw+PfKyAWC68i7x3ezZZ5wDv05vulKrcYJia6TBZy599WIwgDT17rTWv32ZPMosYTqnGKBc+pGiz2QZPHEsTLuRSC4pxG0WYO5NjHukKhDPjMYa5Y2ro7emgW/pzCpTgn7TMbBHh5U4CkEHEpCUmOx9KeVolGGbCVLxljL4c/m2RM24ZNxbKVLSMOsUF4B0gmGVcpjut37qy8UsFCSHq3pLJMFO60izbKygkH54PpsAqSRo7sRiysFKjCouxexzcKdOMnPY+J0o6MZeSqt0LebzZSBB9Wg/Bux9PEfYhSv7ko98VSY9hEcm8hPDeFZFciw4y71hb63CbBuFcsyMgzr3ZLCtxpnsJJbQqUeStQ4/7m5FxVdL7j2Y8q6kW1WRRt8IVGY7PP4VFbsOc0D+v9d20YjpEJmicBzVyPOGFj4nrpoApR8TgLQXEng1eUsHFbXzwGZNTi/EiEgEIfVlOD2J0nJd8/7a38UYwkUYaJqPHH22/xV7zCZ9xZm38QKjyVzIafNSOvPactzpDZJAI6+tapTcaNvg9oUvBXWHAuvPjTVK55rFRwqFHuyVISFNDIhMjqwMcK+Z6DBOWMdq++Gf2SCTpWvysdAlifmiSrS7UKgailFiyH7uY0zXhp8SvEwoeCYS1juMF/f2Or5Kgf9Kr3Wgukm+WIDFfKr09zFcPbupSPVZLR6LLbWkdZd8OPLs8vKG/2Ptha6DjFKvb7SGCklaTWeiza8PLZYG4lue/xJgWlicVIBLXnw0/7zE8vzVXEToLSCQdPH964XiupMpeLpwLhObAVbXm27pf4Fp4R6Gl4BvCQnXzojBEWfo57SzYsYaktwdIGgpIFy83Nj2X/daEUkgmLKtFQn/wxOPZ8thRPgVvnIMl50gY9YF2JRcpC8BTGKfaMc7tkVCLX/wtiqd9XOPVk6ULY2ECvwePiCkH/vDNtnNLBshFa/n5rKh0ji/Orxj58iv3gudUyydpTLry4Zs7G5rU7t62WKWUyDyziNvsEHZJ+biII1oU0ucNxXdpqtHDl4EaHyYHOA4+lfqXwGV1BIfmaBOUQ/IglgrRa8BNVqgMBFsNCg8ihtQVxU7M8M9LiJVmY/GNC2YGTbqVYZcfff6F/F1I0iutDik0qjRKbYzn1v/1zi5cWz5+6tNiMQYWe23g8DqUZwwjKHAYOlLgsq8pmgRn39qH75HpCsb6riE7J+mKrtuLlfSXGEIOXCGs21JSoSscoh26aWKbIfcz7g8xYbCCguYSJqzy3STv7DPjb+2sOsNYsvHyNVzXa3bCEFaJivTrtCEk9K2sVSi39uUGtjIcFH8WegFM821SOr1ZJynVnk2PpN9ZSj3f1slvbPCz8ij3xiZfd1mb+7owm77qjM5BlB85+UL2DasWnFPMaodjXL1xaNXz7wZ+ffjEnPHjX6lKcd8X6JFreRsTz0Noc0hWbUMjAVIILswKEHBL4Nfm5CxGXV7dUUrCFWRmJ8t9hKzcN4egAIV4AOHUt7kcdMN3894rmooMTCzkvPWY0AqRWTGqV8x9N8OzpR5SWkhC1qfTPx/4NDYDCK1ZQdB9YNPretL/fLpVF3ZoOYf3a73GxW9c87vxbU1RWdKvExo3j/k4KRahPboVcNglQDsjq4aYNTUv1STOPidaWdeI3soGqZnohVBzmiYJFpikUzkIrwB7oFDx8fklXLF8fWlpQsDebUZeK87jcv35lHIsv7w9oP9sL/ediqaOSxbrnv0eZCxQ4q9jDvSc9bZBAebNZdQh49c+ZY5YJN5/vofccuHuDeVpSagbFNTwsm4LnF4dzztefN9mcNMRtp1/qH0BljZOTxANBOmmE9+ODEe+2pJ471uhjpG6Nfa+xISAwn+w5YVRNKDm8fyg6iFDt96yjZ0pNBzyKcWcxfn8vTOsav3iU/MzmyoNoBZ5q8vDOkk9txADkRY7i/yWdzU8umBeZozuoH1KJ7ehwE597Pc4rgw8AACAASURBVPzF9AXhZ1t3Kw95mBXkzsc6vcJXCAvPLpLW64WQF2vQnPQ7RSApAig3pHCzucHJL37NXW2RmXTSlFRnHhuvnw/6g3+8QjxVrvAMoaAktZYlOTeUE4L/gmT61Bwfmt+8SrfiUlfJDoFqVuo5SyykUFOglGFAwXpaCOWRu8hV0p95JV7JJPuSFSgxKJqvv9XtUV3OkWwrUVmzULDrhrQg1gUURKhOWWS9cq8+NCHXe4f3ICjWh6B8jBUI6xlJI4KE+cHnP3z/ad4mAJrQnwOK6qH8fzoyrGe4O9ZNS3ex490lKYDj3hmklbRKPfPgmKTKe9C58B3vq1MPn+HRbhGs96TwDVvP3X7YIJHW2vLt6YPN2tUx79ywuYyH71WxL/NVJKWUldXNE3hLGYE7Srd1qWKpD7OYYm34rJM54YFFa0M3SiskrSB0CluYhxciObiDXq4RU9OfSoAAFKnBAh8FuxCUYFojukRZOVYKNr0jCjT83LDFD7f+l4+ZISntcoo3VjQqghZivcTVTtAkynSawjvwY8+RIL124eJeJYtb0oIvhWKI1RMPgpUH5TlUmXgIvCTPBfnLoQ4tl/zshQiGrn+75FPPQkuax7gKqoyx6pM+j58NHShJe3deGK+udyy+vE8Ok4qm9wwVbSvkHIKOwaqOdR2xnHF/OzxeR4o3GUGx5bkPe8/Q5qmX13r53Ykdg47Du4lEE0kFCqstcscxGAdmySYhLF0mbfDY2ew1/M01L1apx6t/lgSCW3zYLFwnhsUkngN7rng8wcG+h8iqA13tOomFKOTdmxTDam2nin2Zr4xrPUhrpSvzVCs2HBXlrFB8J+zldoQo59ZOiHUjLtcxBYnItoClAisHL9JHQwJtK3byE3BgUkm66SSrEQLcw/tTcXUX41nesLixiGLxs4LV6CzJTmNjaMh6gfWvkII9uOxxybOhOOfkmeZSqcaMwhQnWAYJgifDFfP43pmzzK0PSQo4X/XLuH6S/p7LlpOPI8CyTBYTvwyGbrn9LfXvsYoA91gW9xnWfyy1Say1YIUiWMx7HIsv9R0WSLIGhKw2ZFcJuo8LuTYz5Tk8WPq0Ao/cTy2Fenq8k3WKPOxxXhoUVpR/vIPI8RJs+oEE6vpjzILmzPvBn3GGarl88Hpw7rxv+NiKxtS++KrkmLcZwohHuCsgj37QeGHfEdh7rNBvbCpPNnacU1pvOrQba6G3aVJZ67931mxzlRSw8ns0w+YzXr5Xxb6MV5JF2lryGJbiNCojEYAjZ3P38guBi0GCZcWtgHmH7Njj3Kdwi8msY/n7vMjhAmNBUVEEwhBg83iQE6DNwkYQ6cF7T/V4slRv3VgWvRNkYbXpYln0LpUgbcqdpxUWXFKAWmmRhTbKiub2jwcKzulp4taG54/ViiJS20rJelvFOe18otozV8sHph0Vb4OEYL/Va3KbIFfxsHEvQcfod4pAuRC454kOL/iW9Zl7kmxPCy9bY7LIWocV3gY7Q497yKHXkFCCoFo3roBA2KSFofBms6ZRQI93D4aF/76yeYTBIQhDNhYLL2/2gpQJdt5yk1wgLm2xypORx2bloervR5JBCAqOVcAxaPxO4j5sNqCgMaK+myeVvDFcMLYV+rxWLPVvFJjYAuXeozxKh7sMefI5l2+dOsvc/XiHR2uaKCu9KvZRd1/Gv6Gw2lLU3IRp3OsZT6Vqu7NWEyb4nvB0g6ydvCSxTlghMDHqZUBg1DryIuFT6+Q/w2rByyuN+7JqgRtjE3tcPCWvxWS7SHtKURkt0vbltmcx+I8/rvE2hPA4bWEaFjkWVLcqLcdBB/iDWNjTzof78fgF00cU5sHNTRVGf/GaqPPB0vmLq5q93PaWC0thKdLCkes57bzCxoIq5CokeDHCsuFgXQxyrcdtxsPG1u8VgSwR4D689p52c8GXZ3lKONz0LDad5KK3CjLzpbCSDYbleacWAQqzlSWSKOJ28bClkdukPRV/UWLx0tEnSndYKk3bN8YCPmy6OVdiDLaSuZCulOq4lg6bK8Y1Mh0x75hCNj1kxztYDGoH7TF1eJPAfMgcRFyf6wFNg4FtyzlfK8o9xjroSYjdPMGWYOMwEag5qtgXcvcUeIxrYSZfa6Ep/gocPtVhPORZiKXKJOmLHMQuVSkoHz39UWbbFibCAnLzAx2etYLAZJR3rAFky7HKfFQJdigWZGSZKDv5JNehHG2w2iZxGZdjLknG4FnF3U9mDaock3rN5ae6fVx7d3tq5ZmAOVzS7r2KW/13N7SOctsnmS8Btb+6ptmz1lvX9IaSRvC8M2Z5yj25tYsRNjknSjYNu0+mP3jOKorAWEUAhfsG8XY1iYJMisliN51Y6t0K1VBF3VosO21TP0KpJ9gYOkmcQu7Hl6xvf763zZwtcTWsj8Tx1UvKTFv8zt8+6G/OFSMa9GAKQXb1TBlVZdo9jmJfe8g7gLgGKk6/Kpl0mEecQA10a+Vg4MRb8rDk4o86Os0mC/wIJCZ+4jippmu9qMQCYRAE4/Eu2Whv4x2lDM6PG3PPHfMBZn9NwJfNYNiCu3ADZAruJOWBVNOzgoWSwBxX2O1TDc8N1MO6cs5JM81sUer9xUiSDM9LhsqiYZbGJH1om3gEuE6FXJ/4nqNbsPFLu1BG9UhfLGR8KCKDgu8P4D3v9CavaAwu96AUdG7/BIydKHng/en6lr/Xa/54a2totebZonzECed+lWSWQMnHcohg0TtXskORRg7rYCGCsmKD/DiecegvbSB6rZyCrVVRyDz0mGwQSFu9mXv27BOTVTq21WOZKRbULSRQ3hX451aIXXEpaFFnd4l4xILSQEYdk+Q3YrrCJGm9DJTrY8Xz5sXkDAmUFaoFu0I8woHiAcQQBf0Gy3uhmwliAkhDi8J9ueR2T6LUo5NgDCN7F4UbqXzN5j+o3gxGBrIMkXzCUu94n/Pe4nOiZOVZsrzXoyYulvdK2HuPjFm28BXcfd5PcbEEYIahLq2Ax/ui3J95zEzPEIin8o4iYwLSzqFS7VWxLxPycMlcLmqQW7pMU6nKYbAybDeU6ooJ4tb3F5lolJR6bq5seyK28lzYiaF4wK8nwBZqAx9cgdYFitVeFfsw9Ir/HkXgH74+uyKKPVbrJAtHIWcJlY4PCj7Kuc14hQsb7jkBwbeJFTsqCBCLuuuKJ1D8L092ysagc3hDgmdgXXk+esQixr08Ryg1NiUe8+b7KKFCY8faQS+rD0oHm6yvSsDdz4RelJS7b/s/3IstyG/AeUZxbyfJvMMzx9h4P9gEEE/jKn6FuPajzlt/yyNAPvcDRInsl51pnzhreoSq0C/XAHrojkLTspIk3ggLKMpoIRJ1HLErM/Jx2JHdWytsZKMCf0RhJWMMii/PW4+EwkFH2WyD/KaE5ylMTpJn2q3Dwn19peRV99/fPDs33t/uXQNqRBQrxJnxrvFTfHnG2ECjxPPumNs0Sd5Vk3OWfXkew4RzJ5Mc6aZtQUdoQmwAeLdhYLOxAxjdoObxwXIPzRIl/813ekbkk79P3kU7y3HEF+Id8WNCXBAbIt4P3Iu9gv00WfdtKkvmStGypIJXmJiD42SjRRXgaq0blPR8krZTxT4pUkW223W7fKYXuONZ5IgvckqRh/Mgk7qsWLE0gLh+sHzaVwy7/aACN1g9UET8ijwvyOa2foneH/Ai+P3/EnzofxXw0rYKFRYHlLJi03bFneNE/R2lohLW+nLhzUJ60RVrPMUJhd4udmxoyCJxhaS7DNvI3/RAu/nul3K8Xu4/eKb+HPBkyPFXdnXPLUmALhSiTgmY+6IE1WIpZ/OQVqlnTPfZY4El60/S7CFk3PA/u/Y84L2WwgJbrnug2sehmikB33GyanV8sHfvkBds3D7TsjbgObDPsR8z1qEoKtumTo0J2l56U0vo2mIzz/jHKORvFGEs4n6hICOW/CTCBh3rP8W0iFvzb/RYR3ne+RAvQL2ZPbZvMJ8Rbr5dv7nXbKYzPO8/vXTNcD8o/QTt+rMC2blNa8glJoiaaxT2QccxFjnxJ5KoYl+mq83CigKJO49glWoXosiz2HyQZz7cJpBHAWoDHg2U7ecXj04HZlveJwrJLLGe5JT3nCJPeW+/4h6HLxZ6W7kP6wA58VWxj0OtsN+x0IbVIiisx+RHpbHuJO91dEu4ovByuY+pnmjpYtxTr/813L0Pp/V64YNilb9X7u0gFzY5wffccfSYfIOLPGnVXlLIoUBjfQzaOAePMPJbqgTvIFY5LF+k4ISPm1Q4jyDFHsvgTWK59Hvokvar7eIRgIaAkmVTFQYdweaTKt9xgrL6L7/+ZEQigrhjsv6dTWqphGeZtS+osBXvk4efDc78ZOfD2kkKShRQnpE0ge+lOKdFQvkJUuxReN//uN+8K1btdz/sNe/Iv2kC63luSd3Jh3fKbmK8RKF3n3E8Ef7NQZhSz7mzJvN7WFwcG0+8mSrRCKhiH41PZr/yovifa1vMaVIRLW2O1swmEdMRLjf74i82Ot0ORfYTq9lHLdxYB95Y0eJZzqOi1rPCDi7j/U+v9V5I0H6yOt8YiCfkz7ys/3hLa1WeO65ga01nYStWWBjhm7OYwkOHVxt13zMeQXVRNRjYhEKncYXNKEo1PPk0pdOTUs7aOvO4YMGzwrW85q52z2IXtUAH4YhC9Iaciyv0gQcz6pkP6muifwelxmbzSurpgBZmayy4+MHHpshTGspabsOc1pxS/quGQYHnBOUyTWpGaC3++A/eFVBL4p5nxuR4rk9WCTKgktr3VNqc7LzXMCxC86MfjAmkr8zymcPQdv/Tnd4HaiIK/iRx6RAUm1ZIyztDDKCu9MuCvaZlQO7R3tC6NmnHGc/ta3oumD/8dNYvXJLEuFoWPAZFGOgHC1eXZTwdRBEYTwj89IJ53uno8zOerqqeS7kQ0OenXEjrOIrAxEXAvmdqRLJEIT61QpajaV+KgCKgCCgCioAioAgoAoqAIlASBFSxLwms2qkioAgoAoqAIqAIKAKKgCJQXgRUsS8v3jqaIqAIKAKKgCKgCCgCioAiUBIEVLEvCazaqSKgCCgCioAioAgoAoqAIlBeBFSxLy/eOpoioAgoAoqAIqAIKAKKgCJQEgRUsS8JrNqpIqAIKAKKgCKgCCgCioAiUF4EVLEvL946miKgCCgCioAioAgoAoqAIlASBFSxLwms2qkioAgoAoqAIqAIKAKKgCJQXgSqvkBVeeHQ0RQBRUARUAQUAUVAEVAEFIHyIKAFqsqDs46iCCgCioAioAgoAoqAIqAIjCkEJlfrbLPewVTreeq8FAFFQBFQBBQBRUARUAQUgSwQUI59FihqH4qAIqAIKAKKgCKgCCgCikCFEVDFvsIXQIdXBBQBRUARUAQUAUVAEVAEskBAFfssUNQ+FAFFQBFQBBQBRUARUAQUgQojoIp9hS+ADq8IKAKKgCKgCCgCioAioAhkgYAq9lmgqH0oAoqAIqAIKAKKgCKgCCgCFUZAFfsKXwAdXhFQBBQBRUARUAQUAUVAEcgCAVXss0BR+1AEFAFFQBFQBBQBRUARUAQqjIAq9hW+ADq8IqAIKAKKgCKgCCgCioAikAUCqthngaL2oQgoAoqAIqAIKAKKgCKgCFQYAVXsK3wBdHhFQBFQBBQBRUARUAQUAUUgCwRUsc8CRe1DEVAEFAFFQBFQBBQBRUARqDACqthX+ALo8IqAIqAIKAKKgCKgCCgCikAWCKhinwWK2ocioAgoAoqAIqAIKAKKgCJQYQRUsa/wBdDhFQFFQBFQBBQBRUARUAQUgSwQUMU+CxS1D0VAEVAEFAFFQBFQBBQBRaDCCKhiX+ELoMMrAoqAIqAIKAKKgCKgCCgCWSCgin0WKGofioAioAgoAoqAIqAIKAKKQIURUMW+whdAh1cEFAFFQBFQBBQBRUARUASyQEAV+yxQ1D4UAUVAEVAEFAFFQBFQBBSBCiOgin2FL4AOrwgoAoqAIqAIKAKKgCKgCGSBgCr2WaCofSgCioAioAgoAoqAIqAIKAIVRkAV+wpfAB1eEVAEFAFFQBFQBBQBRUARyAIBVeyzQFH7UAQUAUVAEVAEFAFFQBFQBCqMgCr2Fb4AOrwioAgoAoqAIqAIKAKKgCKQBQKq2GeBovahCCgCioAioAgoAoqAIqAIVBgBVewrfAF0eEVAEVAEFAFFQBFQBBQBRSALBFSxzwJF7UMRUAQUAUVAEVAEFAFFQBGoMAKq2Ff4AujwioAioAgoAoqAIqAIKAKKQBYIqGKfBYrahyKgCCgCioAioAgoAoqAIlBhBFSxr/AF0OEVAUVAEVAEFAFFQBFQBBSBLBBQxT4LFLUPRUARUAQUAUVAEVAEFAFFoMIITK7w+Dp8SgQGRVIeos0VAUXAh0CNSBJQ9HlLgpK2UQSiEdDnLRof/VURyBIBtdhniab2pQgoAoqAIqAIKAKKgCKgCFQIAbXYVwj4Yof9wcLVxXahxysCEw6Bn14wr6Bz1uetINj0oAmOgD5vE/wG0NMvKwL2eVOLfVlh18EUAUVAEVAEFAFFQBFQBBSB0iCgin1pcNVeFQFFQBGoOAJEEtTX1Xif2jK87esmJwpdqDguOgFFQBFQBMYrAkrFGa9XtorP6xsnzjQbrjPZrGkdMIte6TLPvNZV0dlOrq0xXz9hpmmYUmNa2gfMZbe2VnQ+SQdHidpw3cmCZa1Z8X6fef/jvthD5zTVmjUt/abQCOz15taaM4+e6Y2z/L1ec+P97bFjaoPKIbDp+pPNt0+f5U3gr+/2mt9c31LSyZx7WpPp6R00Dz+71iz5a0/B91lJJznU+Y5b1ZstNqoz68ypNWu7B83Vd7aVY1hzymGNpk8eVTBa09ofOeaRB0w322xWZ1o7Bsxjz681y1b2RrbXHxUBRUARUMVe74GyIoBCv+3m9d6YM6ZPMvc8Eb2wJZ3ctIYas8NWUxI1f2lpt6d8WKmvM2arTeU/ItMasplPookkbIS1dfbMSQalfO6sWm9TtPF6kz2FZNKQgfST5n7zn5etMf0R099rxwZz0qGNZrEoXFff1TYCg4RTMY3TJhmUe0TzMyVFrTra8YyUUrg/N5KNJoLC/HO5H7lfp0+NdxV8IJvSD1b3md22a0g0xWdeLd4YsMXGdeaAXad64/E2uPuxDs/YUEoBoz22bzB4UvbeqcH87oYWb8MVJvO3qDfrz5NnXhqg2KsoAoqAIhCHgCr2cQjp75kicNCeuYWUTj/6tN+8mZEFatbMWnPKFxoTzRWlHuW+WMHy1tE5aO4ShSBKJoleUysaeK3ow+6/k+XvqaJsTWuYNPwvyhffNYoyhBKAQo8yHScoUPvsNNU8/mLw4r/dZ+rNSYIPqt32W9ab88SK+yfxTHwq1nuViYHA+vMmmx+eMyfxyT4h9xJW5aSy09a5DTvtV8tG88NP+s1ph88wG8kmNE4eWNTpHZP0GX5WFPtCvU52Lo+/0GX222Wqtznmudh1foNhHqWU/XbJKfWMMTAwaNjQhAnvgfVEqffaysmuXBXeNqwP/V4RUAQmHgLxb9yJh4mecUIEsDqlsQHOFkX1s9vkrepPvdQ1bHFOOORwMxa6Ssr+Yunbc4ecdbG3b9D85anRCgFUmR99e66n0JdCGPe9j/rMOx/0eYv+20KNCROsglAjUPARrIDf+dIsc+lNLeYdVRjCYBt338+aEb9JtCcNNS2NuM92FhvnNGOz+T3qwOlpDvHaolxPEioesu/ODWbe7HQPK0aC2x/uMH398S+kKfU1Zk/xmll55c0ejwIUJpttUDf8fl0l3ozunvC2YX3o94qAIjDxEFDFfuJd88zO+PgFjd5iWKgct2C64VOI3Ploxwhr4oey8N38QLso0cHKiOXTFjKW/xhoO0d/Lj/vzTbM0Xj87VC8l63sMbjTi5H2zgGxrA+YT8S6joUd2s2q1Xz6TH9C5gBKARZ6OLsH7ZHzmuAdOOekJvP7G1W5L+b6jJVju+Qe+Os74Zs//3lEUUT8bfEsQQ+zEqTYP/B0p+noyiuncMctLY/jukTJvf7edi/WJUiO2H+aCQvO5Zjdt09GxQvqm+9mNk4qqI8Hxcrf0h6vdEPBaRDl3grxRXjlGqcFny/vLCtw8jfdIH65hh73rmzU42cThoJ+rwgoAmMdgfg3xVg/Q53/uETAT09BwX1SPABhMlsslfB+i5XPCC/3a8fPHM4w0irBttfeHR50x+LNYo6HAf57v/zPgMyVf/kbhRuFC6Wmq2fA+5dNgz2/X13dnJkLnkWfDdGqT/qE8jDDOwcUIpR7uL7vftjneReiirK6ihUem8kJsqD0yQZHpfIINEugJpu7UshOW+eVajac0HD88uzr3d6m1EqbBIS6ij3fPxsRSH/o3ij2/l7Hxt88K/vvmjeCgMPb4kWDHkfsS5yg1EOfSyKXyEb9jRXJN3BJ+tQ2ioAiMHYQGKOvybED8HieaUt7fyRH1J77BhLs6QoLOlZoK+vNnWzgoVuJ4p3aNijU5RYs9V89buaw1RCF9Yo72kaci39Or73VY/ikkUP3mSaKfe6IvtH6UZquAts+LwoWFsAzjprhUaFQ7qEIvPthuzn31FlmE8mkkkQIov3xd+bGNv3RxZ+YTsdSG3uANohEACV6TlMySs1siT2xwnNmvTWRAwT8+PzibsNzGyauYv9iBvErYeMk/R7ltpTy5WNneilEkwpeO+JgrDy4aG3JrOqTbER90slpO0VAERhXCCRbwcfVKevJZIUAixOfKIHTfdYxMwwpJZHmtgHzS7FCu0oCFquThwJfse0++1q3eeyF6H6jxizFb2TPwJJuNyAo9X+6tU3STI5Ny9jLb3SLtd2YUyW4cenbPebWhzRtZSnum1L0uccOUwqid2E1LoSHzjkQvxGm2MPb38Shiby0NN1GNmuM2PSX2mLtZZ9K4QC02Xc4V6z1zy3OeRc/FErd0uWj8ZojGzKyXiFsit9Zlfw94xpNssZW+1MEFIHqR0AV++q/RmN2hrvMn+IpjrYwDoFmf7qldZSCsEgyXBC0hjUR9f/Yz083TaIs3PN4Z6KgtFIChFXuhIMbR3Bvc0p9a8mVh1KeF31juW+W9H4rJfjWpsns7BoYdX3ceRDDYNMmQinqWBtuxeU4aEa9msyj1JeypP2z2W6RDXmYLNhr2nCQ5/sSzF3pTEvQw9ZJGQQbdm5h37MpTipw5W06XY4h0J5nB8GAEWTEwIiwzpxcLAypPaHQqSgCioAikASBFK+nJN1pG0VADFmysB4nyvlekqfZCgvZNZI7PayIEikj4ZXbALjP7T7V499ed0+bx/1OImwgPrttcADdukO515P0Y9tsLcF9Jx86w0s5aQWPw+W3tSaeU5rxStmWjBwnHdJoXpfMOG5goz9A8tKbojnYW25SZ755SpM3VdKVLrx8TSmnrX3HIEB6xrdCAmL3+WyDsRSZF5d0pyoERyzJIcJpR1aKV4rCbUGCAu1yxN3gWH976i9Md3Lpz3OoKbRFId8sIkA0aXYpNp5//7XZ/uEr8neTBOSeLPEsVsCRaxEn22yWD5xdIh41FUVAEVAEkiKgin1SpLRdIgRYmFnIbBEjDsKFf6Vw0aPSMRLYiRL/oQR2krkF2gB9EDBGQN0DQvmJq9LYNKPWnH5EfhFNNOGQRlAW/HxklGDOI42rm+I86w651EOGGvU12TmskAMcpTyJYG0PClqcKhz6b0iALFVIdxYvykwpDPaoFrtJAmnVt0GpD6sF4WZjWi7KeVg7e5LkTe8RDwuB6GwKrLz8RrhiyXPixsdEAQYlL0q4L+2mMapd0G94CX5ySW6TuYFUYiYWppRClVprpGhz4oXcMXmHnX7kjGEPF791iocrLlUv1CbS0SIE03PtVBQBRUARSIqAKvZJkcqo3eA3d6/ra+z8vhkcqJs8OPWXNRe92JxR1xXthrRtRx4wbUSeeibEIgYd4wv7DkWDJpglaR1RiFFIURqw/O8hOePhpT763NpA5ZVusY5lJS6dAOrNfeI+f0SK9cQtyv7xt5aAW4JUC5WkBXvo/5Vl3eaK20dn6AFLax1li3DMQdO91H53PKLu/UKvy1g7jiJoBLGjNPKceB/ZCPMv33E/QDv7o1DloNPssGXO8wUNh/sqSMgyRbGzahA8gnbjT8aph54pXYwOOesJiCedbZR8Xorx4fkIErya/E7BOr9Ybj3fM8Zh+6ZPCbymrd88/XJ4ljD/mPq3IqAIjB8EVLEv87Xsndb+ZTNY8xNKO/XWdH235/zt/qnuvcV/qLnelCD/SelPDqv6/lK9cXcJ6LMBsnbUp2RhwQJPvvs0nFcs+7++rsWz3O8mualZ+lDwKQjFh6JMZOnApe1az11LN5l1wrJzhNGBXLSYO4syXP8/S27tj9eMycvjnRIVPS++ttmcLVZ7W6AIqhPKUFzV3NLfQTpCsQiQ1Wg2SjpKu3xmDSntW2yUf70ftt80wydOiHVB6cSDhkTRcI5yajnE9cvvPLNYoIOEOA+CXql0G5ar3h5HrE5wL7kW9FPp+5rMUlEKOco72a/iZIZ4MRbsla/WHdfe/o6VXxX7pGhpO0VgfCGgin2Zr6fUOfxUlk076jqmZvB3vRvP/1bv9813636+5IkyT6fg4bDWYYWHc+0XqDd3Cmee4Ews7Vjs0wgLN31AzXn65bXmeAle3Wjd/K3K//PZUhRvNy+3a7F/UygKxVrtrhJ3e7ECp/b1lOkuCbSzqfSg/4QpQ/65LXk73GUPH94q95YahMWQjZHScvxIjq2/T5Tng0D1QoTgZ+5RgmP5lxz0b7/bZ+55osN0y3O46uPgDS1VZqF2pRGCRt089kHHZhkkCrVoSoqUlEHz8X/XsZZg8Oj3GdS5M4SCk5Si5B9D/1YEFAFFoBgE0r2ZixlJj/UQmHLR4pu7L9j2tEmm5j9lk25TygAAFaxJREFUedh4CJbdxUL2eM/351/ZNzjwg2kL33iv2uEiEM6v1BNY+tAznRKkR5703OIHPz6q6Ezcea4QS94vrmr20vsduNvUEWM+IrQcV1yLPXOpBsH7EBVbEDTHf/z67OGc17c91BEacBx0bNR3YIIn5NunNXlZiJCjhZbzgShzcfzrqH71t8oigEcmTuDiUwWZe8Aq8SjyQcXDsDbbtJjPyPPr53jjQaMKrBVoa1Dxqk2OFv4/9RmylBfE63BNREE6xsJD6easp3Cev0I3xcKosusXUpnaQnps6p8T40ghkiYOqJD+9RhFQBGoXgRUsa/AtZmycOl1g3//2Tt6Brp/UDNY848yBUtoPVNKNZ3Q+/35P548s2thzYXLq5Yk+ZRY0veTSopwt7HCPSic1udf7/IC77IWaAGLJZsLn/XnTTYH7NYg/PtJoxRm12LPwhklVIP9wdlzvCYuy5WCPv/33PiiS/6+B2WSl9zY6tGEqlmw0F4imW/OO73Jy0IEBYIS9HtLsCTelTgBNysE+J13RrJqmL+9viXW0hk3tv4ejADPBelKm6VgHEq7p7yL0o7yzWYYIbNUXM0J27tbDZZg2iCxAd0o9cRqULApSIKPHt0SysneThat0S1GfvOG5H5fKfdtlNRlbK1nrPoEgeyuJwOvITUj/Io9uemDDB577pj3vHBsUI77qHPW3xQBRUARUMW+QvdAzc9eJnLxn9eeP/9SobT+TBbAk4emMl10xP/X2zz17K7vb/v9KT9fepuoUknXx7KdDQo8Fif4vC9LcB2K9lQJ0Cu1fLymz+O8B4lrsV8TZ7EXUG0+drcvMlkEfR803sjvarwAxPc+im9Z6RYoY5fe3GoWCBXnunvaDdQnrmNaagXnkfQYcFUpDQIo7UEpYd0AcCzBZE1aI3ULwoRN24ZCcbMpZ2mHx8wvvIxIm4o1nPunLmIVcS/7TlvXC/Vr9KvsI4nD4d2RJsAeelqcYu/Oe7l4zj4qME4G40VYEKwfG/5eIpsOctATdHy3UBLBNIkQh7T5hjlqIxuzN1aEZyNK0p+2UQQUgYmJQLI3zsTEpixnPfWiJctloFN6z9/24MGamv+W/9/BG7hmcMtJgzW39Fww/97uwf7zp1y0bHFZJpRiEBZLBE7435ycy22e4vCCmlIqPqyqZFNjng6Acg5dKEiwWsMfnsjyniiDbgad3mgHx0SGasye+yvLeqSehLxKRLsmMxLB6GmE5ySMovWq9I1yDc1sG6n3kETCxudevOeJziRdFNzmOaHQLHqlMAforttNSaXY40GBTnPt3e2pLDKuxwxrvg1gLvik9UBFQBGYkAiM0Hx6zp//6wmJQhWcdE7NHHxKluGcYj80J1mTDzM1ta/3XLDdf9XVd//fKpjqqCkEZGwb1abUX2AZJA+2lXMkA0yYwEn+jz+sMT+8aLXXBGvhP38rR8vByslvVuAaHygZZJA/39ce6D63bcfyQkwqz1eEMhAmO0mw5OFDWVXIpnPxdc1mrdAJkkpcwGHSfrRdrgBcknuOAHTiUMiAlNZjAp3npvvbQysLQxHJjCYiDy+Zqgictdx+PBBkyHHlMAnWt6kgW+XcqlXgxl98bUuqqtm8Q11PyQyhyRHcnlbYJC1bGR5En7Y/ba8IKAJjD4GRJs0a87dj7xTG04yj+AqD3+vtqf9S7dM3mEl7W9ZOdZw7GVfI/OLPAoH72mZ3QbELq5CZ5izaJStFkEyXhTBpZUq7EbE56eHHu+Lmqid40Cr2++3cYCjvHidYMCkJX6jMktSFVs45eaaXISitYAGNy8ZD6lDykD8tlkyUtKiUnm6xIygGcPNVKoOASzmL2zChLD/wdKcXLE1l1zihvw7JlARXP/hJi+sh/HcCQUlF6ZcWiQ3gHn9MiqaRApJ3BlWk4aZbYWNC/QWEPPJpNxX068YO+OcQ9bdNERvVxv2N1wlzTCPbSJVt4gysuFW70/TDpmLZypY0h2hbRUARGGcIBHMVxtlJjqPTeatmg23Wqbbzwbrnpp208zv7pJnips8VsHlWMuXc/EAwNz6r83n8hfCiNCgLNkNGGss6lVzh8sIlhyuLiz0uy02DxBsQ5JuFQKHgk1Yo7hUnn5f82PCHUe6JlwgK5qMPqgnzsYICFiQoJrR79U3lBgfhk9V3bpB491BwK6kd2XwtW9E7orYDlYu/MhTYijJ841/yz+BpUqWZ+7pPaFiX3NQySuneedsp0l+PcPPTKalh53m/bDCi0l0St8OzhQK+vtDooNPZscnAZc8bepA977Cx/N97Bbm2qo5iWv658TcxECqKgCKgCGSBgKzWg+dm0ZH2UTwCkiFnvcEac2FIT1+ra1pyudl0pzHBhmYh3XrT/EL6+IvBymDIuab+mvRut0pqyDBhPoUo9vT3rFjpN12/0ev6AMkyEqfYh82hnN/H5b7Hm2Kr0aJQwQsOE+ux4Hcs9f6gRYIuv3bCTC/wD8vq7yUOAgVTJXsE2LBZLxi9o+DCzT7x4OmeRR76ipsLfrLsCa3F2b9B5JmwaU/JkORa09kkfEkqJhNYjUJebE2IpEjg1UOxZ1uKUcAWmdvLSVtZyMbRi6sJyfATNzfwBp9SCt4MqtmmFSg7rncwLCYibb/aXhFQBMYuApPrFy5VXn2Fr9/ghTvU97X0f0eU+u/7piJL0eDC+jrz45p/X+pVSxqsSpb9aAC9irFDRmMUBqrSUtK+UIEmEpRzO2l/Lsc4bUrOl5Z2ezQAFvgdxeoXZ7V/7a1u8y+/Llyx/bszmobzgv9G0kTiNUgrKDJR4ipKS9/uCeVSw2neYSs3Bd/oIEcKkHGpLcZHSZDmf69ozpzKEXU+E+U3l4bDOaOswkevHaLZkDIS6k3aonB+/GxVVO55f0Vpf9ss/6awnBU45jx7eMo+K94DBG9bHMUsaD53P95ZVPDs6eLdKKVEbazDxqXi8Le+mI8lwiPzwKLRz2fY8fq9IqAIjE8ECte0xiceZT+r3gu2PaK3pf8iGXhbd3BRlG7rN7Xfb1j42ptln1QGA+6xfT4nOsrI+Wcly3ceNjRWSH8wXVjboO9rZWNhJe0GASWJ6qyH7J0rynP8AlFcr2w2LhffHZOc4nGKddAc7XcuVQjLezF9BY2D1XdHST1o5TmpPxAmXxBuso1JoCppmFJ152OdXuErBEWMSqgvLAkPxg0bT7+PRsDN/MR9uVbuj7XdfV7gM9VgUfaoSVDMs4KlnCJVCGNEUdyiZzvyV7JUBaWS7ZVwDe4thOBPPlCIMAQQtL3fLg3DtSbg3Wf9PKQ5h2ppWycbua8dP3PYWLJG6nZcc1ebZtKplguk81AEKoiAKvYVAr/rgh22qjH9C8UAdYxvCktrzOD5dQuX3l2hqRU97GZCybAu/qI7G+qgUDe6Hb/eCRyMCzgMmjOK0j6iMEFnQOFAeaKi5FgUlG4UAwQlKcxaSJyAtZTS9oFFa0Ot8Cve7/WoBDsIXx85XIojkW4xbRChd7BKKAJNM/KUkI8cT859T3aanbbOeckO2HWqeUziTdhgphUC4I88MF9V9skXu7zNQxZy1jHBVm+C7//zT/lMVPc91ekprciZR+eP4V66SzaQhQg0scFoJ1Zot8SglEPweB37+enmHaG7sYEJ8yxCC/qyYLm5xPsgGCouv70ts1iIcpyrjqEIKAKlQ0AV+9JhG9jz4IWfn9zTvOpfRKn/X9LAXTHa5L3+o8lNtb+oufC19GTLwNEq8yUW3mIshnbW0AqwQCIdIdlwkp6h0JmGBQthWmFjgWJ77FBmjiP2n+7l048KBkw7RrnasymxAoc5TIGgcqn1c2BRdbOUBM2VYjzbfabes/BTwZdqm3g6VLJDYPZMR7H/NH8joxy/+ma3p9zjIdt1fkNoMHTUbKhUa+s/cM9X4vqx0YRetLFY7V157PkuKbBVwG5FOiGVpJtOMgqDSv1G/M7+u0iKy12Mx5vHcEDGKuKHrBDsfJYEQ9tAYjx6l90mFa8FLxVFoBAEqEODh/1DeZ8seiXcI5akXZI2hcxRj0mHgCr26fAqunVv8wdfqamp+eGIjmpqLq3rr/2nmv969cOiB6iCDgguzSLA1FVA25zFrZBTnOZkllnbXZjp7smX1srC2+Dx39lwkG3kV9c0ewGGY0WgWWzgZOwhaC9IsFKipFu545GOWDc/yiWZdSx/f4Fk3Xnq5S5TiIckaE76nZEYj3y8gz/2AkUQxR4hd/1zci3SCPe1W/31XkmZmiXthUqqVFT1ywcfjVbWn5Bg+1MPz1vroQQ9OI7542ygDxqqlwE+ZJg6TOpGHLz3VPOiUNoef6HLbCxK/QkLGofT+oLlpRKovqqAGBz/NdC/JyYCeLLyxSWnmK02qTe/u2F0utQk7ZK0mZgol/+sVbEvM+YSIPuJtYLK0E+ZgYHv1v/XG8+UeRpVPxyUF7KtWCnWMu4Wr+pMYf0n0wj56/cTS9pPL/3UXCPVJAlYg7Kw/rxa88XDGs2Vd3hxzWNCULatvPdRjs/snzgBk8eLAmGFoLywar+0IdXiOpInnU+tU62Ma7ibVO3E6qhSPAJY0tebm69x8JbkLHeFjDIEmXMdaLetZLZZ2zVakQ6byXFCA7EULSzAKNdZys0PdCTycM2VFKwHD8Wz2PF5F+wom5awlKxB83xcvEWvZZx6NWhjEjR22u8wDfzHH9d4m+L9hUplPTMELpP1yK1KS98fiAftDze1Bm6U0o6t7ScuAryfXdlSrPd4/Pz1JpK0S9Jm4iJd3jNXxb68eJspC5fe0nvBdl+oGTRTamctvqvmQpN85S3zXCs53OYb5m9NrHWFFGly54+1y0oS6z8LKqXkyQ5i0wWSHhIu+b1PdhioOAgBixTzuV0s2tUum0qOedJcWgnKR89Wis2KPWe8EShkFP+aKxZdlEbiJ8iWY5V5fxpFFwfoBYtEsR87Po3qvYruwsnz8H4A/QIPCTQO6CzNQluZ4myO486MDRgK5bpzJ5sbJN99WHB4XD/F/E7QLvz6oPSS3JcE31JNN4mQltWfmjXJcZVqY6lPBCsTNIzXxU9HsnO7VgwMpdpkVOr8ddzyI7Dqk5EUrnZ5r1Cgzi9J2iVp4+9X/y4NAqrYlwbXyF7rFi7+S2SDCf4j1vB9xEpupVj+KLQSm8OePlc3j3T9Wyslv01rmGSOlHSNe+44ZVRhqHVFmcUiSk7vLTeuN1tLhVmEPO8NonDceF/xyhCKi1t51mKQxb8L9swHRaIYvuRU9qR/vBPHiFLIZsUK1vtzpNDYbFHqHWN84umAGVU101YKTTzABGkI9gQ9W1ksKUqDNktPi2JPhhyr9LmFxeKgYjOwRD7rirXfT/OJO7bY39lIH7Bbg7eRdp9H0l0SjG83mmxa2FRCDfPXauBeLeQeLXbubH6z3ATRF+fNh9S6KPj+AN7zTm/y3kMPSVB/2ixfxZ6vHj9+EICKSd0IPsRy8FwFxVwlaZekzfhBrrrPRBX76r4+43J28EcJjGVB5NMtHzJ4TJtaY6DM7CyKpZtVJ6lSiGJ62L7TPC44/RJghsWLKpaW1DMgxoi3HQoDSoRb4AXuPPmzXVm1ut/LD/36UBEn+r9aUst985Qmj46D7Cnucvq6+s5ktBw2GrbqJ9k++EBj4QWLddxKZwoqxYhJ+/6AmrGdk90DPrY/a0qj4E/Aq1+gRkQJWMOvJ8AWhZDPQXtMNVQLRbDaJ72GUeNM5N8ISuO5sQLFhLSl3INR4haz4np878x82ln3GfuGFBiL8oqx2P/y6uaooQr+DaWVDaV7n7FpuVOUDKzzKPWcp/0dusp8eU5ukkrWNv0q8QH/8PXZFVHsibOhcFspxMYroeCfeEjjMBWLdw3xEAQE3/ZwR2ga2lLMSfscPwjgJfrDza2eh4y1hvUxSJK0S9ImqG/9LnsEVLHPHlPtMQYBlA03SC+qOSXln5HKr0lkQExdpKSMoh+QBtB1YTMXm6LRP8b7H/eZ+yX1HkqU3zpKUOFv/9wigUf5XNJu9gp/X/6/ocW4RaL8v/M384Tmk4Vg9bObGyx8UDb80ixjEcvgV+TZADS39UtGkgEvK4n/X+box4fUfVax30Y8G2wsym0F9p/fWP7bBsVyDqvFa0RRMQLCqRmQVNgITA1pz6bB3Tj4+wyy4vnbFPI3FW6/elwutaU9no3i9fe2D2dh4r68+LoWj6JjqSnwgL98zEzzr7/5xEvzyDNfCWt9IedcyDEo+BddscaQypR3p92wsaEBvysk3eUry4ID4QsZT4+ZWAgkXbuStEvSZmKhW/6zTb4qlH9uOuI4RQDlcblw1YmiDxMyqcD5fURczSzcSQRrAwGEfrc1xzIm1j+/QouC/sxr3cOWapRW0jryIeVelFjl/pyTm8ynLf3mdrGcJZUV7/eJYh/empfj9fdIwZnwJql+wa1PCkqU7ecXh6c0Ix/6LOFZ55T3nCLfJhuMtPPAQg8mKB54I8iJr4p9qks2ovETkk8eJRiF9hEJCrXXI0sKSNTs/MF0UW3T/PaG3Ce2IBXn9LxQA+6StKl+7wF//0o8Bnh/rGLLs2zfDVgLw+oxpJlPIW3XJnw/FdK3ewzvN95hthK2pczxXL3+V1Xqi8VXj1cExgsCToKW8XJK4/s8BkU4wx8sXD2mT5SASwL1cClPlu0lHFsWLhbw1qEAnrTKJIDgtieos04s8fSNe5FCPlGBZlB2yERBHnCKw6Qd15u7XJYwN2bQhYJLbwvM+H8HAxbrUqTRxHKOMuRXnPxzyOJvMnlwjaH9VIsV56cXzPNOTVLOJnr3VdPzBpYnHNzoFSOqJl41BdsOkbSMyLKVvQaevxWUcDZ3vWKFhzISlPqUbD9HHTjd3PNEh3lHAl7jhA3qoftMNXc+mm06zrhxC/2d8z9qqOgX55dFjQ/mQowP8UA3SqBznBGi0LkXe9xYft6KPXc9XhEoNwLDz1u5B9bxikOgmhSN4s5Ej1YEyo+AKhrlx1xHnLgI6PM2ca+9nnn5EbDPWz4aq/xz0BEVAUVAEVAEFAFFQBFQBBQBRSAjBFSxzwhI7UYRUAQUAUVAEVAEFAFFQBGoJAKq2FcSfR1bEVAEFAFFQBFQBBQBRUARyAgBVewzAlK7UQQUAUVAEVAEFAFFQBFQBCqJgCr2lURfx1YEFAFFQBFQBBQBRUARUAQyQkAV+4yA1G4UAUVAEVAEFAFFQBFQBBSBSiKgin0l0dexFQFFQBFQBBQBRUARUAQUgYwQUMU+IyC1G0VAEVAEFAFFQBFQBBQBRaCSCCSqvljJCerYIxGwBaoUF0VAESgcgbSVZwsfSY9UBBQBfd70HlAEyoeAWuzLh7WOpAgoAoqAIqAIKAKKgCKgCCgCioAioAgoAoqAIqAIKAKKgCKgCIQj8P8B5rGFtOs88l8AAAAASUVORK5CYII=;" parent="0eJiwybFb9geiyAsJZwF-19" vertex="1">
          <mxGeometry x="430" y="83.7" width="313.81" height="56.3" as="geometry" />
        </mxCell>
        <mxCell id="0eJiwybFb9geiyAsJZwF-95" value="3.2" style="ellipse;whiteSpace=wrap;html=1;aspect=fixed;rotation=0;gradientColor=#223548;strokeColor=none;gradientDirection=east;fillColor=#5b738b;rounded=0;pointerEvents=0;fontFamily=Helvetica;fontSize=16;fontColor=#FFFFFF;spacingTop=4;spacingBottom=4;spacingLeft=4;spacingRight=4;points=[];fontStyle=1" parent="0eJiwybFb9geiyAsJZwF-19" vertex="1">
          <mxGeometry x="333.3" y="399" width="30" height="30" as="geometry" />
        </mxCell>
        <mxCell id="Sb9R4JvsUfBBn-sdtAvk-2" value="" style="points=[];aspect=fixed;html=1;align=center;shadow=0;dashed=0;fillColor=#FF6A00;strokeColor=none;shape=mxgraph.alibaba_cloud.opensearch;" vertex="1" parent="0eJiwybFb9geiyAsJZwF-19">
          <mxGeometry x="273" y="194" width="60.3" height="60" as="geometry" />
        </mxCell>
        <mxCell id="0eJiwybFb9geiyAsJZwF-94" value="" style="sketch=0;points=[[0,0,0],[0.25,0,0],[0.5,0,0],[0.75,0,0],[1,0,0],[0,1,0],[0.25,1,0],[0.5,1,0],[0.75,1,0],[1,1,0],[0,0.25,0],[0,0.5,0],[0,0.75,0],[1,0.25,0],[1,0.5,0],[1,0.75,0]];outlineConnect=0;fontColor=#232F3E;fillColor=#7AA116;strokeColor=#ffffff;dashed=0;verticalLabelPosition=bottom;verticalAlign=top;align=center;html=1;fontSize=12;fontStyle=0;aspect=fixed;shape=mxgraph.aws4.resourceIcon;resIcon=mxgraph.aws4.s3;" parent="0eJiwybFb9geiyAsJZwF-19" vertex="1">
          <mxGeometry x="638" y="389" width="78" height="78" as="geometry" />
        </mxCell>
        <mxCell id="0eJiwybFb9geiyAsJZwF-101" value="" style="html=1;verticalLabelPosition=bottom;align=center;labelBackgroundColor=#ffffff;verticalAlign=top;strokeWidth=2;strokeColor=#0080F0;shadow=0;dashed=0;shape=mxgraph.ios7.icons.envelope_(empty);" parent="0eJiwybFb9geiyAsJZwF-19" vertex="1">
          <mxGeometry x="349" y="480" width="44" height="30" as="geometry" />
        </mxCell>
        <mxCell id="0eJiwybFb9geiyAsJZwF-62" value="" style="sketch=0;outlineConnect=0;fontColor=#232F3E;gradientColor=none;fillColor=#232F3D;strokeColor=none;dashed=0;verticalLabelPosition=bottom;verticalAlign=top;align=center;html=1;fontSize=12;fontStyle=0;aspect=fixed;pointerEvents=1;shape=mxgraph.aws4.authenticated_user;" parent="0eJiwybFb9geiyAsJZwF-19" vertex="1">
          <mxGeometry x="480" y="516" width="59" height="59" as="geometry" />
        </mxCell>
        <mxCell id="0eJiwybFb9geiyAsJZwF-34" value="" style="sketch=0;points=[[0,0,0],[0.25,0,0],[0.5,0,0],[0.75,0,0],[1,0,0],[0,1,0],[0.25,1,0],[0.5,1,0],[0.75,1,0],[1,1,0],[0,0.25,0],[0,0.5,0],[0,0.75,0],[1,0.25,0],[1,0.5,0],[1,0.75,0]];outlineConnect=0;fontColor=#232F3E;fillColor=#ED7100;strokeColor=#ffffff;dashed=0;verticalLabelPosition=bottom;verticalAlign=top;align=center;html=1;fontSize=12;fontStyle=0;aspect=fixed;shape=mxgraph.aws4.resourceIcon;resIcon=mxgraph.aws4.lambda;" parent="0eJiwybFb9geiyAsJZwF-19" vertex="1">
          <mxGeometry x="560" y="535" width="78" height="78" as="geometry" />
        </mxCell>
        <mxCell id="0eJiwybFb9geiyAsJZwF-60" value="指定敏感词审核通过" style="text;html=1;align=center;verticalAlign=middle;resizable=0;points=[];autosize=1;strokeColor=none;fillColor=none;" parent="0eJiwybFb9geiyAsJZwF-19" vertex="1">
          <mxGeometry x="508" y="405" width="130" height="30" as="geometry" />
        </mxCell>
        <mxCell id="0eJiwybFb9geiyAsJZwF-77" value="3.1" style="ellipse;whiteSpace=wrap;html=1;aspect=fixed;rotation=0;gradientColor=#223548;strokeColor=none;gradientDirection=east;fillColor=#5b738b;rounded=0;pointerEvents=0;fontFamily=Helvetica;fontSize=16;fontColor=#FFFFFF;spacingTop=4;spacingBottom=4;spacingLeft=4;spacingRight=4;points=[];fontStyle=1" parent="0eJiwybFb9geiyAsJZwF-19" vertex="1">
          <mxGeometry x="292" y="509" width="30" height="30" as="geometry" />
        </mxCell>
        <mxCell id="0eJiwybFb9geiyAsJZwF-78" value="4" style="ellipse;whiteSpace=wrap;html=1;aspect=fixed;rotation=0;gradientColor=#223548;strokeColor=none;gradientDirection=east;fillColor=#5b738b;rounded=0;pointerEvents=0;fontFamily=Helvetica;fontSize=16;fontColor=#FFFFFF;spacingTop=4;spacingBottom=4;spacingLeft=4;spacingRight=4;points=[];fontStyle=1" parent="0eJiwybFb9geiyAsJZwF-19" vertex="1">
          <mxGeometry x="494.5" y="583" width="30" height="30" as="geometry" />
        </mxCell>
        <mxCell id="Sb9R4JvsUfBBn-sdtAvk-1" value="" style="sketch=0;points=[[0,0,0],[0.25,0,0],[0.5,0,0],[0.75,0,0],[1,0,0],[0,1,0],[0.25,1,0],[0.5,1,0],[0.75,1,0],[1,1,0],[0,0.25,0],[0,0.5,0],[0,0.75,0],[1,0.25,0],[1,0.5,0],[1,0.75,0]];outlineConnect=0;fontColor=#232F3E;fillColor=#C925D1;strokeColor=#ffffff;dashed=0;verticalLabelPosition=bottom;verticalAlign=top;align=center;html=1;fontSize=12;fontStyle=0;aspect=fixed;shape=mxgraph.aws4.resourceIcon;resIcon=mxgraph.aws4.dynamodb;" vertex="1" parent="0eJiwybFb9geiyAsJZwF-19">
          <mxGeometry x="430" y="395" width="78" height="78" as="geometry" />
        </mxCell>
        <mxCell id="Sb9R4JvsUfBBn-sdtAvk-5" value="" style="sketch=0;points=[[0,0,0],[0.25,0,0],[0.5,0,0],[0.75,0,0],[1,0,0],[0,1,0],[0.25,1,0],[0.5,1,0],[0.75,1,0],[1,1,0],[0,0.25,0],[0,0.5,0],[0,0.75,0],[1,0.25,0],[1,0.5,0],[1,0.75,0]];outlineConnect=0;fontColor=#232F3E;fillColor=#7AA116;strokeColor=#ffffff;dashed=0;verticalLabelPosition=bottom;verticalAlign=top;align=center;html=1;fontSize=12;fontStyle=0;aspect=fixed;shape=mxgraph.aws4.resourceIcon;resIcon=mxgraph.aws4.s3;" vertex="1" parent="0eJiwybFb9geiyAsJZwF-19">
          <mxGeometry x="363.3" y="535" width="78" height="78" as="geometry" />
        </mxCell>
        <mxCell id="0eJiwybFb9geiyAsJZwF-70" value="Lambda" style="text;html=1;align=center;verticalAlign=middle;resizable=0;points=[];autosize=1;strokeColor=none;fillColor=none;" parent="0eJiwybFb9geiyAsJZwF-19" vertex="1">
          <mxGeometry x="222" y="476" width="70" height="30" as="geometry" />
        </mxCell>
        <mxCell id="0eJiwybFb9geiyAsJZwF-96" value="模型审核不通过" style="text;html=1;align=center;verticalAlign=middle;resizable=0;points=[];autosize=1;strokeColor=none;fillColor=none;" parent="0eJiwybFb9geiyAsJZwF-19" vertex="1">
          <mxGeometry x="268.29999999999995" y="545" width="110" height="30" as="geometry" />
        </mxCell>
        <mxCell id="Sb9R4JvsUfBBn-sdtAvk-10" value="模型审核通过" style="text;html=1;align=center;verticalAlign=middle;resizable=0;points=[];autosize=1;strokeColor=none;fillColor=none;" vertex="1" parent="0eJiwybFb9geiyAsJZwF-19">
          <mxGeometry x="318" y="442.5" width="100" height="30" as="geometry" />
        </mxCell>
        <mxCell id="Sb9R4JvsUfBBn-sdtAvk-12" style="edgeStyle=orthogonalEdgeStyle;rounded=0;orthogonalLoop=1;jettySize=auto;html=1;fillColor=#0050ef;strokeColor=#001DBC;strokeWidth=2;exitX=1;exitY=0.5;exitDx=0;exitDy=0;exitPerimeter=0;" edge="1" parent="0eJiwybFb9geiyAsJZwF-19" source="Sb9R4JvsUfBBn-sdtAvk-1">
          <mxGeometry relative="1" as="geometry">
            <mxPoint x="420" y="444" as="sourcePoint" />
            <mxPoint x="640" y="435" as="targetPoint" />
            <Array as="points">
              <mxPoint x="630" y="434" />
              <mxPoint x="717" y="435" />
            </Array>
          </mxGeometry>
        </mxCell>
        <mxCell id="Sb9R4JvsUfBBn-sdtAvk-18" style="edgeStyle=orthogonalEdgeStyle;rounded=0;orthogonalLoop=1;jettySize=auto;html=1;exitX=0;exitY=0.5;exitDx=0;exitDy=0;exitPerimeter=0;entryX=1;entryY=0.5;entryDx=0;entryDy=0;entryPerimeter=0;fillColor=#0050ef;strokeColor=#001DBC;strokeWidth=2;" edge="1" parent="0eJiwybFb9geiyAsJZwF-19" source="0eJiwybFb9geiyAsJZwF-34">
          <mxGeometry relative="1" as="geometry">
            <mxPoint x="524.3" y="573.64" as="sourcePoint" />
            <mxPoint x="441.3" y="573.64" as="targetPoint" />
          </mxGeometry>
        </mxCell>
        <mxCell id="Sb9R4JvsUfBBn-sdtAvk-19" value="指定敏感词审核不通过" style="text;html=1;align=center;verticalAlign=middle;resizable=0;points=[];autosize=1;strokeColor=none;fillColor=none;" vertex="1" parent="0eJiwybFb9geiyAsJZwF-19">
          <mxGeometry x="460" y="472.5" width="140" height="30" as="geometry" />
        </mxCell>
        <mxCell id="0eJiwybFb9geiyAsJZwF-28" value="" style="sketch=0;points=[[0,0,0],[0.25,0,0],[0.5,0,0],[0.75,0,0],[1,0,0],[0,1,0],[0.25,1,0],[0.5,1,0],[0.75,1,0],[1,1,0],[0,0.25,0],[0,0.5,0],[0,0.75,0],[1,0.25,0],[1,0.5,0],[1,0.75,0]];outlineConnect=0;fontColor=#232F3E;fillColor=#7AA116;strokeColor=#ffffff;dashed=0;verticalLabelPosition=bottom;verticalAlign=top;align=center;html=1;fontSize=12;fontStyle=0;aspect=fixed;shape=mxgraph.aws4.resourceIcon;resIcon=mxgraph.aws4.s3;" parent="1" vertex="1">
          <mxGeometry x="100" y="-398" width="78" height="78" as="geometry" />
        </mxCell>
        <mxCell id="0eJiwybFb9geiyAsJZwF-30" style="edgeStyle=orthogonalEdgeStyle;rounded=0;orthogonalLoop=1;jettySize=auto;html=1;exitX=0.5;exitY=0;exitDx=0;exitDy=0;exitPerimeter=0;fillColor=#0050ef;strokeColor=#001DBC;strokeWidth=2;" parent="1" source="0eJiwybFb9geiyAsJZwF-31" target="0eJiwybFb9geiyAsJZwF-32" edge="1">
          <mxGeometry relative="1" as="geometry">
            <Array as="points">
              <mxPoint x="300" y="-483" />
            </Array>
          </mxGeometry>
        </mxCell>
        <mxCell id="0eJiwybFb9geiyAsJZwF-31" value="" style="sketch=0;points=[[0,0,0],[0.25,0,0],[0.5,0,0],[0.75,0,0],[1,0,0],[0,1,0],[0.25,1,0],[0.5,1,0],[0.75,1,0],[1,1,0],[0,0.25,0],[0,0.5,0],[0,0.75,0],[1,0.25,0],[1,0.5,0],[1,0.75,0]];outlineConnect=0;fontColor=#232F3E;fillColor=#ED7100;strokeColor=#ffffff;dashed=0;verticalLabelPosition=bottom;verticalAlign=top;align=center;html=1;fontSize=12;fontStyle=0;aspect=fixed;shape=mxgraph.aws4.resourceIcon;resIcon=mxgraph.aws4.lambda;" parent="1" vertex="1">
          <mxGeometry x="261" y="-398" width="78" height="78" as="geometry" />
        </mxCell>
        <mxCell id="0eJiwybFb9geiyAsJZwF-32" value="" style="sketch=0;points=[[0,0,0],[0.25,0,0],[0.5,0,0],[0.75,0,0],[1,0,0],[0,1,0],[0.25,1,0],[0.5,1,0],[0.75,1,0],[1,1,0],[0,0.25,0],[0,0.5,0],[0,0.75,0],[1,0.25,0],[1,0.5,0],[1,0.75,0]];outlineConnect=0;fontColor=#232F3E;fillColor=#01A88D;strokeColor=#ffffff;dashed=0;verticalLabelPosition=bottom;verticalAlign=top;align=center;html=1;fontSize=12;fontStyle=0;aspect=fixed;shape=mxgraph.aws4.resourceIcon;resIcon=mxgraph.aws4.bedrock;" parent="1" vertex="1">
          <mxGeometry x="462" y="-522" width="78" height="78" as="geometry" />
        </mxCell>
        <mxCell id="0eJiwybFb9geiyAsJZwF-33" style="edgeStyle=orthogonalEdgeStyle;rounded=0;orthogonalLoop=1;jettySize=auto;html=1;fillColor=#0050ef;strokeColor=#001DBC;strokeWidth=2;" parent="1" edge="1" target="Sb9R4JvsUfBBn-sdtAvk-1">
          <mxGeometry relative="1" as="geometry">
            <mxPoint x="340" y="-361" as="sourcePoint" />
            <mxPoint x="400" y="-361" as="targetPoint" />
          </mxGeometry>
        </mxCell>
        <mxCell id="0eJiwybFb9geiyAsJZwF-36" value="" style="html=1;verticalLabelPosition=bottom;align=center;labelBackgroundColor=#ffffff;verticalAlign=top;strokeWidth=2;strokeColor=#0080F0;shadow=0;dashed=0;shape=mxgraph.ios7.icons.user;" parent="1" vertex="1">
          <mxGeometry x="728" y="-777" width="64" height="62" as="geometry" />
        </mxCell>
        <mxCell id="0eJiwybFb9geiyAsJZwF-43" value="" style="sketch=0;points=[[0,0,0],[0.25,0,0],[0.5,0,0],[0.75,0,0],[1,0,0],[0,1,0],[0.25,1,0],[0.5,1,0],[0.75,1,0],[1,1,0],[0,0.25,0],[0,0.5,0],[0,0.75,0],[1,0.25,0],[1,0.5,0],[1,0.75,0]];outlineConnect=0;fontColor=#232F3E;fillColor=#7AA116;strokeColor=#ffffff;dashed=0;verticalLabelPosition=bottom;verticalAlign=top;align=center;html=1;fontSize=12;fontStyle=0;aspect=fixed;shape=mxgraph.aws4.resourceIcon;resIcon=mxgraph.aws4.s3;" parent="1" vertex="1">
          <mxGeometry x="100" y="-610" width="78" height="78" as="geometry" />
        </mxCell>
        <mxCell id="0eJiwybFb9geiyAsJZwF-44" style="edgeStyle=orthogonalEdgeStyle;rounded=0;orthogonalLoop=1;jettySize=auto;html=1;entryX=0.5;entryY=0;entryDx=0;entryDy=0;entryPerimeter=0;fillColor=#008a00;strokeColor=#005700;strokeWidth=2;startArrow=classic;startFill=1;endArrow=none;endFill=0;" parent="1" target="0eJiwybFb9geiyAsJZwF-32" edge="1">
          <mxGeometry relative="1" as="geometry">
            <Array as="points">
              <mxPoint x="360" y="-571" />
              <mxPoint x="501" y="-570" />
            </Array>
            <mxPoint x="358" y="-571" as="sourcePoint" />
          </mxGeometry>
        </mxCell>
        <mxCell id="0eJiwybFb9geiyAsJZwF-47" style="edgeStyle=orthogonalEdgeStyle;rounded=0;orthogonalLoop=1;jettySize=auto;html=1;exitX=0.5;exitY=1;exitDx=0;exitDy=0;exitPerimeter=0;fillColor=#008a00;strokeColor=#005700;strokeWidth=2;" parent="1" source="0eJiwybFb9geiyAsJZwF-48" edge="1">
          <mxGeometry relative="1" as="geometry">
            <mxPoint x="319" y="-609.5761060353752" as="targetPoint" />
          </mxGeometry>
        </mxCell>
        <mxCell id="0eJiwybFb9geiyAsJZwF-48" value="" style="sketch=0;points=[[0,0,0],[0.25,0,0],[0.5,0,0],[0.75,0,0],[1,0,0],[0,1,0],[0.25,1,0],[0.5,1,0],[0.75,1,0],[1,1,0],[0,0.25,0],[0,0.5,0],[0,0.75,0],[1,0.25,0],[1,0.5,0],[1,0.75,0]];outlineConnect=0;fontColor=#232F3E;fillColor=#ED7100;strokeColor=#ffffff;dashed=0;verticalLabelPosition=bottom;verticalAlign=top;align=center;html=1;fontSize=12;fontStyle=0;aspect=fixed;shape=mxgraph.aws4.resourceIcon;resIcon=mxgraph.aws4.lambda;" parent="1" vertex="1">
          <mxGeometry x="280" y="-715" width="78" height="78" as="geometry" />
        </mxCell>
        <mxCell id="0eJiwybFb9geiyAsJZwF-49" value="&lt;font style=&quot;font-size: 18px;&quot;&gt;人工维护的敏感词库&lt;/font&gt;" style="text;html=1;align=center;verticalAlign=middle;resizable=0;points=[];autosize=1;strokeColor=none;fillColor=none;" parent="1" vertex="1">
          <mxGeometry x="499.4" y="-750" width="190" height="40" as="geometry" />
        </mxCell>
        <mxCell id="0eJiwybFb9geiyAsJZwF-50" style="edgeStyle=orthogonalEdgeStyle;rounded=0;orthogonalLoop=1;jettySize=auto;html=1;exitX=0;exitY=0.5;exitDx=0;exitDy=0;fillColor=#008a00;strokeColor=#005700;strokeWidth=2;" parent="1" source="0eJiwybFb9geiyAsJZwF-51" edge="1">
          <mxGeometry relative="1" as="geometry">
            <mxPoint x="360" y="-690" as="targetPoint" />
          </mxGeometry>
        </mxCell>
        <mxCell id="0eJiwybFb9geiyAsJZwF-63" value="OpenSearch" style="text;html=1;align=center;verticalAlign=middle;resizable=0;points=[];autosize=1;strokeColor=none;fillColor=none;" parent="1" vertex="1">
          <mxGeometry x="276" y="-540" width="90" height="30" as="geometry" />
        </mxCell>
        <mxCell id="0eJiwybFb9geiyAsJZwF-66" style="edgeStyle=orthogonalEdgeStyle;rounded=0;orthogonalLoop=1;jettySize=auto;html=1;fillColor=#008a00;strokeColor=#005700;strokeWidth=2;" parent="1" source="0eJiwybFb9geiyAsJZwF-67" edge="1">
          <mxGeometry relative="1" as="geometry">
            <Array as="points">
              <mxPoint x="220" y="-677" />
              <mxPoint x="220" y="-571" />
            </Array>
            <mxPoint x="280" y="-571" as="targetPoint" />
          </mxGeometry>
        </mxCell>
        <mxCell id="0eJiwybFb9geiyAsJZwF-67" value="" style="verticalLabelPosition=bottom;aspect=fixed;html=1;shape=mxgraph.salesforce.web2;" parent="1" vertex="1">
          <mxGeometry x="106.5" y="-715" width="75" height="75" as="geometry" />
        </mxCell>
        <mxCell id="0eJiwybFb9geiyAsJZwF-68" value="S3(知识库数据)" style="text;html=1;align=center;verticalAlign=middle;resizable=0;points=[];autosize=1;strokeColor=none;fillColor=none;" parent="1" vertex="1">
          <mxGeometry x="75" y="-540" width="110" height="30" as="geometry" />
        </mxCell>
        <mxCell id="0eJiwybFb9geiyAsJZwF-69" value="S3(待审核图片)" style="text;html=1;align=center;verticalAlign=middle;resizable=0;points=[];autosize=1;strokeColor=none;fillColor=none;rotation=0;" parent="1" vertex="1">
          <mxGeometry x="89" y="-422" width="110" height="30" as="geometry" />
        </mxCell>
        <mxCell id="0eJiwybFb9geiyAsJZwF-72" value="Lambda" style="text;html=1;align=center;verticalAlign=middle;resizable=0;points=[];autosize=1;strokeColor=none;fillColor=none;" parent="1" vertex="1">
          <mxGeometry x="288" y="-740" width="70" height="30" as="geometry" />
        </mxCell>
        <mxCell id="0eJiwybFb9geiyAsJZwF-73" value="WEB" style="text;html=1;align=center;verticalAlign=middle;resizable=0;points=[];autosize=1;strokeColor=none;fillColor=none;" parent="1" vertex="1">
          <mxGeometry x="114" y="-745" width="50" height="30" as="geometry" />
        </mxCell>
        <mxCell id="0eJiwybFb9geiyAsJZwF-76" value="2" style="whiteSpace=wrap;html=1;aspect=fixed;rotation=0;gradientColor=#223548;strokeColor=none;gradientDirection=east;fillColor=#5b738b;rounded=0;pointerEvents=0;fontFamily=Helvetica;fontSize=16;fontColor=#FFFFFF;spacingTop=4;spacingBottom=4;spacingLeft=4;spacingRight=4;fontStyle=1;shape=ellipse;perimeter=ellipsePerimeter;points=[];" parent="1" vertex="1">
          <mxGeometry x="284" y="-458" width="30" height="30" as="geometry" />
        </mxCell>
        <mxCell id="0eJiwybFb9geiyAsJZwF-79" style="edgeStyle=orthogonalEdgeStyle;rounded=0;orthogonalLoop=1;jettySize=auto;html=1;exitX=0;exitY=0.5;exitDx=0;exitDy=0;exitPerimeter=0;entryX=1;entryY=0.5;entryDx=0;entryDy=0;entryPerimeter=0;fillColor=#0050ef;strokeColor=#001DBC;strokeWidth=2;" parent="1" source="0eJiwybFb9geiyAsJZwF-31" target="0eJiwybFb9geiyAsJZwF-28" edge="1">
          <mxGeometry relative="1" as="geometry" />
        </mxCell>
        <mxCell id="0eJiwybFb9geiyAsJZwF-80" value="1" style="ellipse;whiteSpace=wrap;html=1;aspect=fixed;rotation=0;gradientColor=#223548;strokeColor=none;gradientDirection=east;fillColor=#5b738b;rounded=0;pointerEvents=0;fontFamily=Helvetica;fontSize=16;fontColor=#FFFFFF;spacingTop=4;spacingBottom=4;spacingLeft=4;spacingRight=4;points=[];fontStyle=1" parent="1" vertex="1">
          <mxGeometry x="204" y="-377.5" width="30" height="30" as="geometry" />
        </mxCell>
        <mxCell id="0eJiwybFb9geiyAsJZwF-85" value="" style="edgeStyle=orthogonalEdgeStyle;rounded=0;orthogonalLoop=1;jettySize=auto;html=1;exitX=1;exitY=0.5;exitDx=0;exitDy=0;exitPerimeter=0;fillColor=#008a00;strokeColor=#005700;strokeWidth=2;" parent="1" source="0eJiwybFb9geiyAsJZwF-92" edge="1">
          <mxGeometry relative="1" as="geometry">
            <mxPoint x="178" y="-571" as="sourcePoint" />
            <mxPoint x="280" y="-571" as="targetPoint" />
          </mxGeometry>
        </mxCell>
        <mxCell id="0eJiwybFb9geiyAsJZwF-86" value="2" style="ellipse;whiteSpace=wrap;html=1;aspect=fixed;rotation=0;gradientColor=#0057D2;strokeColor=none;gradientDirection=east;fillColor=#2395FF;rounded=0;pointerEvents=0;fontFamily=Helvetica;fontSize=16;fontColor=#FFFFFF;spacingTop=4;spacingBottom=4;spacingLeft=4;spacingRight=4;points=[];fontStyle=1" parent="1" vertex="1">
          <mxGeometry x="440" y="-592" width="30" height="30" as="geometry" />
        </mxCell>
        <mxCell id="0eJiwybFb9geiyAsJZwF-87" value="3" style="ellipse;whiteSpace=wrap;html=1;aspect=fixed;rotation=0;gradientColor=#0057D2;strokeColor=none;gradientDirection=east;fillColor=#2395FF;rounded=0;pointerEvents=0;fontFamily=Helvetica;fontSize=16;fontColor=#FFFFFF;spacingTop=4;spacingBottom=4;spacingLeft=4;spacingRight=4;points=[];fontStyle=1" parent="1" vertex="1">
          <mxGeometry x="384" y="-686" width="30" height="30" as="geometry" />
        </mxCell>
        <mxCell id="0eJiwybFb9geiyAsJZwF-91" value="" style="edgeStyle=orthogonalEdgeStyle;rounded=0;orthogonalLoop=1;jettySize=auto;html=1;exitX=1;exitY=0.5;exitDx=0;exitDy=0;exitPerimeter=0;fillColor=#008a00;strokeColor=#005700;strokeWidth=2;" parent="1" source="0eJiwybFb9geiyAsJZwF-43" target="0eJiwybFb9geiyAsJZwF-92" edge="1">
          <mxGeometry relative="1" as="geometry">
            <mxPoint x="178" y="-571" as="sourcePoint" />
            <mxPoint x="280" y="-571" as="targetPoint" />
          </mxGeometry>
        </mxCell>
        <mxCell id="0eJiwybFb9geiyAsJZwF-92" value="1" style="ellipse;whiteSpace=wrap;html=1;aspect=fixed;rotation=0;gradientColor=#0057D2;strokeColor=none;gradientDirection=east;fillColor=#2395FF;rounded=0;pointerEvents=0;fontFamily=Helvetica;fontSize=16;fontColor=#FFFFFF;spacingTop=4;spacingBottom=4;spacingLeft=4;spacingRight=4;points=[];fontStyle=1" parent="1" vertex="1">
          <mxGeometry x="204" y="-586" width="30" height="30" as="geometry" />
        </mxCell>
        <mxCell id="Sb9R4JvsUfBBn-sdtAvk-9" style="edgeStyle=orthogonalEdgeStyle;rounded=0;orthogonalLoop=1;jettySize=auto;html=1;entryX=0.5;entryY=0;entryDx=0;entryDy=0;entryPerimeter=0;fillColor=#0050ef;strokeColor=#001DBC;strokeWidth=2;exitX=0.5;exitY=1;exitDx=0;exitDy=0;exitPerimeter=0;" edge="1" parent="1" source="0eJiwybFb9geiyAsJZwF-31" target="Sb9R4JvsUfBBn-sdtAvk-5">
          <mxGeometry relative="1" as="geometry">
            <mxPoint x="323.3" y="-290" as="sourcePoint" />
            <mxPoint x="383.3" y="-290" as="targetPoint" />
          </mxGeometry>
        </mxCell>
        <mxCell id="Sb9R4JvsUfBBn-sdtAvk-14" style="edgeStyle=orthogonalEdgeStyle;rounded=0;orthogonalLoop=1;jettySize=auto;html=1;entryX=0.5;entryY=0;entryDx=0;entryDy=0;entryPerimeter=0;fillColor=#0050ef;strokeColor=#001DBC;strokeWidth=2;exitX=0.5;exitY=1;exitDx=0;exitDy=0;exitPerimeter=0;" edge="1" parent="1" target="Sb9R4JvsUfBBn-sdtAvk-5">
          <mxGeometry relative="1" as="geometry">
            <mxPoint x="484.0000000000002" y="-322" as="sourcePoint" />
            <mxPoint x="450" y="-250" as="targetPoint" />
            <Array as="points">
              <mxPoint x="484" y="-290" />
              <mxPoint x="422" y="-290" />
            </Array>
          </mxGeometry>
        </mxCell>
      </root>
    </mxGraphModel>
  </diagram>
</mxfile>
